classDiagram
    class Library {
        +add_book()
        +register_user()
        +create_loan()
    }

    class Book {
        +str title
        +str author
        +bool state
        +mark_as_unavailable()
        +mark_as_available()
    }

    class User {
        +str name
        +str email
    }

    class Loan {
        +start_date
        +end_date
        +close_loan()
    }

    Library "1" *-- "0..*" Book
    Library "1" *-- "0..*" User
    Library "1" *-- "0..*" Loan

    Book "1" -- "0..*" Loan
    User "1" -- "0..*" Loan